<svg width="200" height="200" viewBox="0 0 200 200" fill="none" xmlns="http://www.w3.org/2000/svg">
<path d="M197.99 51.65L174.24 33.35C172.626 32.3143 170.871 31.5161 169.03 30.98C167.197 30.3817 165.287 30.0517 163.36 30H95L103.01 80H163.36C165 80 167.05 79.63 169.02 79.02C170.99 78.41 172.89 77.57 174.23 76.66L197.98 58.34C199.33 57.43 200 56.22 200 55C200 53.78 199.33 52.57 197.99 51.65ZM85 10H75C73.6739 10 72.4021 10.5268 71.4645 11.4645C70.5268 12.4021 70 13.6739 70 15V50H36.64C34.98 50 32.94 50.37 30.97 50.99C28.99 51.59 27.1 52.42 25.76 53.35L2.01 71.65C0.66 72.56 0 73.78 0 75C0 76.21 0.66 77.42 2.01 78.35L25.76 96.67C27.1 97.58 28.99 98.42 30.97 99.02C32.94 99.63 34.98 100 36.64 100H70V185C70 186.326 70.5268 187.598 71.4645 188.536C72.4021 189.473 73.6739 190 75 190H85C86.3261 190 87.5979 189.473 88.5355 188.536C89.4732 187.598 90 186.326 90 185V15C90 13.6739 89.4732 12.4021 88.5355 11.4645C87.5979 10.5268 86.3261 10 85 10Z" fill="black"/>
</svg>
