<svg width="200" height="200" viewBox="0 0 200 200" fill="none" xmlns="http://www.w3.org/2000/svg">
<path d="M166.667 50H16.6666V16.6667H166.667V50ZM137.5 100H125V141.667L155.083 159.667L161.333 149.5L137.5 135.417V100ZM191.667 133.333C191.667 165.583 165.583 191.667 133.333 191.667C113.5 191.667 96.0833 181.75 85.5 166.667H25V58.3333H158.333V80.6667C178 90.0833 191.667 110.083 191.667 133.333ZM66.6666 100H85.5C90.25 93.25 96.3333 87.5 103.417 83.3333H70.8333C68.5 83.3333 66.6666 85.1667 66.6666 87.5V100ZM175 133.333C175 110.333 156.333 91.6667 133.333 91.6667C110.333 91.6667 91.6666 110.333 91.6666 133.333C91.6666 156.333 110.333 175 133.333 175C156.333 175 175 156.333 175 133.333Z" fill="black"/>
</svg>
