<svg width="200" height="200" viewBox="0 0 200 200" fill="none" xmlns="http://www.w3.org/2000/svg">
<path fill-rule="evenodd" clip-rule="evenodd" d="M137.933 184.442C125.933 184 91.925 179.3 56.3084 143.692C20.7 108.075 16.0084 74.075 15.5584 62.0667C14.8917 43.7667 28.9084 25.9917 45.1 19.05C47.0498 18.2081 49.185 17.8875 51.2961 18.1198C53.4072 18.3521 55.4216 19.1293 57.1417 20.375C70.475 30.0917 79.675 44.7917 87.575 56.35C89.3132 58.8894 90.0564 61.9796 89.663 65.0317C89.2696 68.0838 87.767 70.8844 85.4417 72.9L69.1834 84.975C68.3979 85.5422 67.845 86.3753 67.6273 87.3194C67.4097 88.2635 67.5421 89.2545 68 90.1084C71.6834 96.8 78.2334 106.767 85.7334 114.267C93.2334 121.767 103.675 128.75 110.833 132.85C111.731 133.354 112.787 133.495 113.785 133.244C114.784 132.993 115.648 132.369 116.2 131.5L126.783 115.392C128.729 112.807 131.599 111.076 134.793 110.56C137.987 110.044 141.256 110.784 143.917 112.625C155.642 120.742 169.325 129.783 179.342 142.608C180.689 144.341 181.545 146.403 181.822 148.58C182.099 150.757 181.787 152.969 180.917 154.983C173.942 171.258 156.292 185.117 137.933 184.442Z" fill="black"/>
</svg>
